<svg id="Layer_1" data-name="Layer 1" xmlns="http://www.w3.org/2000/svg" viewBox="0 0 301.94 415.5"><defs><style>.cls-1{fill:#fff;stroke:#000;stroke-miterlimit:10;}.cls-2{fill:#c09aea;}.cls-3{fill:#42aaff;}.cls-4{fill:#96f392;}.cls-5{fill:#ff7575;}</style></defs><title>logolo3</title><path class="cls-1" d="M165.5,162" transform="translate(-0.03)"/><polygon class="cls-2" points="165.47 161.5 250.03 161.5 299.47 211 299.47 236 239.47 236 165.47 161.5"/><polygon class="cls-3" points="238.97 88 298.97 88 298.97 112 250.03 161.5 165.47 161.5 238.97 88"/><path class="cls-2" d="M151,351.71V415.5a150.11,150.11,0,0,0,140.61-95.84,152.32,152.32,0,0,0,10-65.66h-64.1c.8,6.76,3.55,36.3-16.47,63.06a86.75,86.75,0,0,1-70,34.65Z" transform="translate(-0.03)"/><path class="cls-4" d="M.37,254h65.2a85.7,85.7,0,0,0,2.34,34.76c9.1,32.33,34.59,48,39.27,50.81A88.41,88.41,0,0,0,151,351.71V415.5a151.88,151.88,0,0,1-58.84-11.9c-44.32-18.75-65.88-53.18-71.6-63A152.63,152.63,0,0,1,.37,254Z" transform="translate(-0.03)"/><path class="cls-2" d="M77.87,407.59" transform="translate(-0.03)"/><polygon class="cls-3" points="150.97 59.63 299.47 59 299.47 0 150.97 0 150.97 59.63"/><polygon class="cls-5" points="63.47 89 63.47 60 150.97 59.63 150.97 0 3.47 0 3.47 89 63.47 89"/><path class="cls-2" d="M167.05,167.29" transform="translate(-0.03)"/></svg>